<svg width="69" height="40" viewBox="0 0 69 40" fill="none" xmlns="http://www.w3.org/2000/svg">
<g filter="url(#filter0_d_19_68)">
<path d="M7.62382 7.04625L59.6428 0.41754C60.3656 0.28563 60.8868 0.179688 61.2169 0.112175C61.6535 0.0238889 61.7705 0 61.9627 0C62.0556 0 62.1403 0.0311592 62.229 0.0477778C62.4223 0.016618 62.6051 0 62.7795 0C63.6695 0 64.3912 0.408192 64.76 1.11863C65.4358 2.42111 64.5416 3.93236 63.8408 4.90973L51.5716 23.3978C50.0612 25.5105 47.2755 26.8773 44.4751 26.8773H44.474C43.5402 26.8773 42.6482 26.7267 41.824 26.4307L37.8464 25.0036L29.2405 31.6687C28.9543 31.8899 28.6148 31.9979 28.2785 31.9979C28.243 31.9979 28.2095 31.9886 28.173 31.9865C28.0988 31.9927 28.0236 32 27.9515 32C26.7503 32 25.735 31.0527 24.9422 29.2039L19.1837 16.5489C18.7011 16.5915 18.2081 16.6175 17.6984 16.6175C15.4756 16.6175 13.2852 16.1916 11.6892 15.448L6.7485 13.1453C4.27399 11.9934 3.89796 10.6369 4.02017 9.7021C4.14238 8.76731 4.85058 7.55104 7.62382 7.04625ZM42.8874 23.4996C43.371 23.6731 43.9047 23.7614 44.4751 23.7614C46.2654 23.7614 48.0912 22.8889 48.9875 21.6373L60.6445 4.07154L33.1001 18.7613C32.4942 19.0666 32.2435 19.3232 32.1474 19.4489C32.2571 19.5631 32.5391 19.7864 33.1774 20.016L42.8874 23.4996ZM32.1151 22.9481C31.9427 22.8858 31.8038 22.8162 31.6502 22.7497L31.1019 26.278L34.3619 23.7541L32.1151 22.9481ZM27.7071 27.7187L28.9731 19.5662C28.9428 18.7197 29.2729 17.1971 31.6523 15.9974L45.8726 8.41313L22.5231 15.8312C22.4615 15.8541 22.3894 15.8707 22.3267 15.8935L27.7071 27.7187ZM8.07924 10.3232L13.0199 12.6259C15.1591 13.623 19.0855 13.8058 21.4838 12.8939L45.0015 5.42387L8.1064 10.1248C7.99567 10.1456 7.89436 10.1653 7.80139 10.1872C7.88496 10.2308 7.97792 10.2754 8.07924 10.3232Z" fill="#00384E"/>
</g>
<defs>
<filter id="filter0_d_19_68" x="0" y="0" width="69" height="40" filterUnits="userSpaceOnUse" color-interpolation-filters="sRGB">
<feFlood flood-opacity="0" result="BackgroundImageFix"/>
<feColorMatrix in="SourceAlpha" type="matrix" values="0 0 0 0 0 0 0 0 0 0 0 0 0 0 0 0 0 0 127 0" result="hardAlpha"/>
<feOffset dy="4"/>
<feGaussianBlur stdDeviation="2"/>
<feComposite in2="hardAlpha" operator="out"/>
<feColorMatrix type="matrix" values="0 0 0 0 0 0 0 0 0 0 0 0 0 0 0 0 0 0 0.25 0"/>
<feBlend mode="normal" in2="BackgroundImageFix" result="effect1_dropShadow_19_68"/>
<feBlend mode="normal" in="SourceGraphic" in2="effect1_dropShadow_19_68" result="shape"/>
</filter>
</defs>
</svg>
